<svg xmlns="http://www.w3.org/2000/svg" xmlns:xlink="http://www.w3.org/1999/xlink" version="1.1" id="Слой_1" x="0px" y="0px" viewBox="0 0 280 42.1" style="enable-background:new 0 0 280 42.1;" xml:space="preserve">
<style type="text/css">
	.st0{fill:#3ABB94;}
</style>
<title>logo</title>
<path class="st0" d="M139.9,12.8c1.1,1.1,1.8,2.6,1.7,4.1c0,1.6-0.6,3.1-1.7,4.2c-1.1,1.1-2.6,1.7-4.1,1.7c-1.6,0-3.1-0.6-4.2-1.7  c-1.1-1.1-1.8-2.6-1.7-4.2c0-1.6,0.6-3.1,1.7-4.1C133.9,10.5,137.6,10.5,139.9,12.8C139.9,12.7,139.9,12.8,139.9,12.8z"/>
<path class="st0" d="M0,32v-9.5l15.3-4.9L0,12.7V3.3L25,13v9.3L0,32z"/>
<path class="st0" d="M24.8,41.1v-6.3h31.2v6.3H24.8z"/>
<path d="M69.7,33.7c-4.2-0.4-8.1-2.4-10.8-5.6c-2.7-3.1-4.2-7.1-4.2-11.2c-0.1-4.5,1.7-8.8,4.9-11.9c3.3-3.3,7.8-5.1,12.5-5  c4.7-0.1,9.2,1.7,12.5,5c3.2,3.1,5,7.5,4.9,12c0,3.2-0.9,6.3-2.6,9c-1.7,2.7-4.1,4.8-6.9,6.1c1,1.2,2.5,1.8,4,1.7  c1.4,0,2.7-0.3,3.9-1V41c-1.7,0.7-3.6,1.1-5.5,1.1c-4.2,0-8.2-2-10.6-5.5L69.7,33.7z M72.1,24.8c2,0.1,3.8-0.7,5.2-2.2  c1.4-1.6,2.1-3.6,2-5.6c0.1-2-0.6-4.1-2-5.6c-2.7-2.9-7.1-3-10-0.3c-0.1,0.1-0.2,0.2-0.3,0.3c-1.4,1.5-2.1,3.5-2,5.6  c-0.1,2.1,0.6,4.1,2,5.6C68.3,24,70.2,24.8,72.1,24.8z"/>
<path d="M90.3,33.2l13.4-32.8h9.5l13.4,32.8H116l-2.3-6.1H103l-2.4,6.1H90.3z M105.9,19.6h4.8l-2.4-7.7L105.9,19.6z"/>
<path d="M152.5,29.1c-3.5-3.1-5.4-7.6-5.2-12.2c-0.1-4.6,1.8-9.1,5.3-12.2c3.6-3.2,8.4-4.9,13.3-4.7c1.3,0,2.7,0.1,4,0.3  c0.9,0.2,1.8,0.4,2.7,0.7c0.6,0.2,1.5,0.6,2.6,1v9.2c-8.7-4.5-17.7-1.5-17.4,5.9c-0.3,4.2,2.9,7.8,7,8.1c0.3,0,0.5,0,0.8,0  c1.4,0.1,2.7-0.2,3.9-0.9v-10h10.1v14.7c-1.6,1.6-3.6,2.8-5.7,3.5c-2.6,1-5.4,1.5-8.2,1.4C160.6,34,156,32.3,152.5,29.1z"/>
<path d="M183.1,0.6h10v19.1c0,3.5,2.1,5,4.9,5s4.8-1.5,4.8-5V0.6h10v19.1c0,4.5-1.4,8-4.2,10.5c-2.9,2.5-6.7,3.8-10.6,3.7  c-3.9,0.1-7.7-1.2-10.6-3.7c-2.8-2.5-4.2-6-4.2-10.5L183.1,0.6z"/>
<path d="M249.6,33.2h-11.7l-8.7-11.6h-1.4v11.6h-10V0.6h15.7c3.2-0.2,6.4,0.9,8.9,3c2.2,1.9,3.4,4.6,3.4,7.5c0,4-2.3,7.7-6,9.4  L249.6,33.2z M232.4,14.3c1.9,0,3.1-1,3.1-2.7S234.2,9,232.4,9h-4.6v5.3L232.4,14.3z"/>
<path d="M250.3,0.6h10v19.1c0,3.5,2.1,5,4.9,5s4.8-1.5,4.8-5V0.6h10v19.1c0,4.5-1.4,8-4.2,10.5c-3,2.5-6.7,3.8-10.6,3.7  c-3.9,0.1-7.7-1.2-10.6-3.7c-2.8-2.5-4.2-6-4.2-10.5V0.6z"/>
</svg>