<svg width="166" height="30" viewBox="0 0 166 30" fill="none" xmlns="http://www.w3.org/2000/svg">
<path d="M90.2221 17.2286C88.1587 15.3597 87.1472 12.9627 87.1472 10.0172C87.1472 7.07175 88.1992 4.65443 90.2423 2.80589C92.2855 0.957347 94.9154 0.00260876 98.0712 0.00260876C98.8508 -0.0138248 99.63 0.0474145 100.398 0.18543C100.931 0.287928 101.458 0.423613 101.975 0.591703L103.493 1.20111V6.62485C98.3342 3.96376 93.034 5.73105 93.2161 10.0985C93.2161 11.622 93.6409 12.7799 94.5512 13.6331C95.4283 14.4688 96.5994 14.9217 97.8082 14.8925C98.7994 14.8925 99.5682 14.6894 100.094 14.344V8.41245H106.021V17.0864C105.273 17.8989 104.14 18.6099 102.643 19.1787C101.099 19.7653 99.4589 20.0547 97.8082 20.0319C94.8007 20.0319 92.272 19.0974 90.2221 17.2286Z" fill="#252525"/>
<path d="M108.174 0.331146H114.091V11.6797C114.091 13.7375 115.348 14.6543 116.969 14.6543C118.59 14.6543 119.826 13.7375 119.826 11.6797V0.331146H125.723V11.6389C125.723 14.3283 124.913 16.4065 123.231 17.8531C121.549 19.2997 119.502 20.0331 116.969 20.0331C114.436 20.0331 112.348 19.32 110.687 17.8531C109.025 16.3861 108.174 14.3283 108.174 11.6389V0.331146Z" fill="#252525"/>
<path d="M147.247 19.702H140.289L135.147 12.7955H134.331V19.702H128.373V0.331146H137.718C139.901 0.331146 141.676 0.903283 143.003 2.08842C143.647 2.63839 144.161 3.32548 144.507 4.09963C144.853 4.87377 145.022 5.71545 145.002 6.56333C145.002 8.99491 143.676 11.0178 141.452 12.1212L147.247 19.702ZM137.024 8.4432C138.146 8.4432 138.881 7.8302 138.881 6.86983C138.881 5.90946 138.146 5.31689 137.024 5.31689H134.331V8.4432H137.024Z" fill="#252525"/>
<path d="M148.24 0.331146H154.157V11.6797C154.157 13.7375 155.414 14.6543 157.035 14.6543C158.656 14.6543 159.892 13.7375 159.892 11.6797V0.331146H165.79V11.6389C165.79 14.3283 164.979 16.4065 163.297 17.8531C161.615 19.2997 159.568 20.0331 157.035 20.0331C154.502 20.0331 152.415 19.32 150.733 17.8531C149.051 16.3861 148.24 14.3283 148.24 11.6389V0.331146Z" fill="#252525"/>
<path d="M82.1311 7.6721C82.4689 7.99409 82.736 8.38256 82.9153 8.81289C83.0947 9.24322 83.1824 9.70602 83.173 10.172C83.173 11.1134 82.8001 12.0167 82.1355 12.6853C81.4709 13.3539 80.5683 13.7336 79.6244 13.7417C78.665 13.7417 77.8294 13.3919 77.097 12.6924C76.7611 12.3646 76.4955 11.9722 76.3164 11.5389C76.1373 11.1056 76.0484 10.6406 76.0551 10.172C76.0457 9.70602 76.1334 9.24322 76.3128 8.81289C76.4921 8.38256 76.7592 7.99409 77.097 7.6721C77.4244 7.33475 77.8175 7.06765 78.2521 6.88721C78.6867 6.70677 79.1536 6.61679 79.6244 6.62278C80.0918 6.61839 80.5552 6.70919 80.9862 6.88962C81.4173 7.07005 81.8068 7.33631 82.1311 7.6721Z" fill="#00DDB5"/>
<path d="M41.0345 20.0218C38.4333 19.7189 36.3223 18.6083 34.6516 16.7C32.9808 14.7917 32.1804 12.5805 32.1804 10.0664C32.1804 7.27974 33.1409 4.9272 35.0918 2.95834C37.0427 0.989479 39.5038 0 42.4551 0C45.4065 0 47.8576 0.999576 49.7985 2.95834C51.7394 4.9171 52.7098 7.27974 52.7098 10.0664C52.7263 11.951 52.2087 13.8011 51.2178 15.3986C50.2269 16.996 48.8042 18.2743 47.1173 19.0828C47.6675 19.7694 48.4279 20.1026 49.4483 20.1026C50.2416 20.1097 51.0235 19.9116 51.7194 19.5271V24.3634C50.6965 24.7955 49.5968 25.012 48.4879 24.9995C45.9367 24.9995 43.8558 23.8888 42.235 21.708L41.0345 20.0218ZM42.4551 14.7109C43.6957 14.7109 44.7062 14.2667 45.4965 13.4185C46.2869 12.5704 46.7071 11.4194 46.7071 10.0664C46.7071 8.71347 46.2969 7.60283 45.4965 6.75471C44.6962 5.90658 43.6957 5.42194 42.4551 5.42194C41.2146 5.42194 40.2141 5.8662 39.4137 6.75471C38.6134 7.64322 38.2132 8.71347 38.2132 10.0664C38.2132 11.4194 38.6234 12.53 39.4137 13.4185C40.2041 14.3071 41.2246 14.7109 42.4551 14.7109Z" fill="#252525"/>
<path d="M53.2068 19.702L61.1284 0.331146H66.7782L74.73 19.702H68.3766L66.9993 16.0951H60.7163L59.3189 19.702H53.2068ZM62.4253 11.6643H65.2602L63.8528 7.09286L62.4253 11.6643Z" fill="#252525"/>
<rect x="17.9121" y="24.8344" width="20.6623" height="5.16556" fill="#00DDB5"/>
<path d="M18.4486 9.53244V15.898L0.210205 22.5139V16.4344L11.046 12.7152L0.210205 8.99602V2.91655L18.4486 9.53244Z" fill="#00DDB5"/>
</svg>
