<svg width="166" height="31" viewBox="0 0 166 31" fill="none" xmlns="http://www.w3.org/2000/svg">
<path d="M90.2222 17.7286C88.1588 15.8597 87.1473 13.4627 87.1473 10.5172C87.1473 7.57175 88.1993 5.15443 90.2425 3.30589C92.2856 1.45735 94.9155 0.502609 98.0713 0.502609C98.8509 0.486175 99.6302 0.547415 100.398 0.68543C100.932 0.787928 101.459 0.923613 101.976 1.0917L103.493 1.70111V7.12485C98.3343 4.46376 93.0341 6.23105 93.2162 10.5985C93.2162 12.122 93.641 13.2799 94.5514 14.1331C95.4284 14.9688 96.5995 15.4217 97.8083 15.3925C98.7996 15.3925 99.5683 15.1894 100.094 14.844V8.91245H106.022V17.5864C105.273 18.3989 104.14 19.1099 102.643 19.6787C101.099 20.2653 99.459 20.5547 97.8083 20.5319C94.8009 20.5319 92.2722 19.5974 90.2222 17.7286Z" fill="white"/>
<path d="M108.174 0.831177H114.091V12.1797C114.091 14.2375 115.348 15.1543 116.969 15.1543C118.59 15.1543 119.826 14.2375 119.826 12.1797V0.831177H125.723V12.1389C125.723 14.8284 124.913 16.9065 123.231 18.3531C121.549 19.7997 119.502 20.5332 116.969 20.5332C114.436 20.5332 112.348 19.8201 110.687 18.3531C109.025 16.8862 108.174 14.8284 108.174 12.1389V0.831177Z" fill="white"/>
<path d="M147.247 20.202H140.289L135.147 13.2956H134.331V20.202H128.372V0.831177H137.718C139.901 0.831177 141.676 1.40331 143.002 2.58845C143.647 3.13842 144.161 3.82552 144.507 4.59966C144.853 5.3738 145.022 6.21549 145.002 7.06336C145.002 9.49494 143.676 11.5178 141.452 12.6212L147.247 20.202ZM137.024 8.94323C138.146 8.94323 138.881 8.33023 138.881 7.36986C138.881 6.4095 138.146 5.81693 137.024 5.81693H134.331V8.94323H137.024Z" fill="white"/>
<path d="M148.24 0.831177H154.157V12.1797C154.157 14.2375 155.414 15.1543 157.035 15.1543C158.656 15.1543 159.892 14.2375 159.892 12.1797V0.831177H165.79V12.1389C165.79 14.8284 164.979 16.9065 163.297 18.3531C161.615 19.7997 159.568 20.5332 157.035 20.5332C154.502 20.5332 152.415 19.8201 150.733 18.3531C149.051 16.8862 148.24 14.8284 148.24 12.1389V0.831177Z" fill="white"/>
<path d="M82.1312 8.17216C82.469 8.49415 82.7361 8.88262 82.9154 9.31295C83.0948 9.74329 83.1825 10.2061 83.1731 10.672C83.1731 11.6134 82.8002 12.5168 82.1356 13.1854C81.471 13.8539 80.5685 14.2336 79.6245 14.2418C78.6651 14.2418 77.8296 13.892 77.0971 13.1924C76.7612 12.8647 76.4956 12.4723 76.3165 12.039C76.1374 11.6057 76.0485 11.1406 76.0553 10.672C76.0458 10.2061 76.1336 9.74329 76.3129 9.31295C76.4923 8.88262 76.7593 8.49415 77.0971 8.17216C77.4245 7.83481 77.8176 7.56772 78.2522 7.38727C78.6868 7.20683 79.1538 7.11685 79.6245 7.12284C80.0919 7.11845 80.5553 7.20925 80.9864 7.38968C81.4174 7.57011 81.8069 7.83637 82.1312 8.17216V8.17216Z" fill="#00DDB5"/>
<path d="M41.0345 20.5218C38.4333 20.2189 36.3223 19.1083 34.6516 17.2C32.9808 15.2917 32.1804 13.0805 32.1804 10.5664C32.1804 7.77974 33.1409 5.4272 35.0918 3.45834C37.0427 1.48948 39.5038 0.5 42.4551 0.5C45.4065 0.5 47.8576 1.49958 49.7985 3.45834C51.7394 5.4171 52.7098 7.77974 52.7098 10.5664C52.7263 12.451 52.2087 14.3011 51.2178 15.8986C50.2269 17.496 48.8042 18.7743 47.1173 19.5828C47.6675 20.2694 48.4279 20.6026 49.4483 20.6026C50.2416 20.6097 51.0235 20.4116 51.7194 20.0271V24.8634C50.6965 25.2955 49.5968 25.512 48.4879 25.4995C45.9367 25.4995 43.8558 24.3888 42.235 22.208L41.0345 20.5218ZM42.4551 15.2109C43.6957 15.2109 44.7062 14.7667 45.4965 13.9185C46.2869 13.0704 46.7071 11.9194 46.7071 10.5664C46.7071 9.21347 46.2969 8.10283 45.4965 7.25471C44.6962 6.40658 43.6957 5.92194 42.4551 5.92194C41.2146 5.92194 40.2141 6.3662 39.4137 7.25471C38.6134 8.14322 38.2132 9.21347 38.2132 10.5664C38.2132 11.9194 38.6234 13.03 39.4137 13.9185C40.2041 14.8071 41.2246 15.2109 42.4551 15.2109Z" fill="white"/>
<path d="M53.2068 20.202L61.1284 0.831177H66.7782L74.73 20.202H68.3766L66.9993 16.5951H60.7163L59.3189 20.202H53.2068ZM62.4253 12.1643H65.2602L63.8528 7.59289L62.4253 12.1643Z" fill="white"/>
<rect x="17.9121" y="25.3345" width="20.6623" height="5.16556" fill="#00DDB5"/>
<path d="M18.4486 10.0324V16.398L0.210205 23.0139V16.9344L11.046 13.2152L0.210205 9.49597V3.4165L18.4486 10.0324Z" fill="#00DDB5"/>
</svg>
